<?xml version="1.0" encoding="utf-8"?>
<!-- Generator: Adobe Illustrator 26.0.1, SVG Export Plug-In . SVG Version: 6.00 Build 0)  -->
<svg version="1.1" id="Capa_1" xmlns="http://www.w3.org/2000/svg" xmlns:xlink="http://www.w3.org/1999/xlink" x="0px" y="0px"
	 viewBox="0 0 150 150" style="enable-background:new 0 0 150 150;" xml:space="preserve">
	 <style type="text/css">
	.st0{fill:#DDC190;stroke:#DDC190;stroke-width:0.3332;stroke-miterlimit:10;}
	.st1{fill:#DDC190;stroke:#DDC190;stroke-width:0.272;stroke-miterlimit:10;}
</style>
<g>
	<path d="M61.3,119c-14.8,0-26.8-12-26.8-26.8s12-26.8,26.8-26.8s26.8,12,26.8,26.8S76.1,119,61.3,119z M61.3,69
		c-12.8,0-23.1,10.4-23.1,23.2s10.4,23.1,23.1,23.1s23.1-10.4,23.1-23.1C84.4,79.4,74,69,61.3,69z"/>
	<path d="M91.5,119c-13.2,0-24-10.8-24-24s10.8-24,24-24s24,10.8,24,24S104.8,119,91.5,119z M91.5,74.6c-11.2,0-20.3,9.2-20.3,20.4
		s9.1,20.3,20.3,20.3s20.3-9.1,20.3-20.3S102.7,74.6,91.5,74.6z"/>
	<path d="M61.3,67.7c-0.3,0-0.6-0.1-0.9-0.3l-11.1-8.2c-0.5-0.4-0.7-1.1-0.5-1.7l2.2-6.3c0.2-0.6,0.8-1,1.4-1H70
		c0.6,0,1.2,0.4,1.4,1l2.4,6.3c0.2,0.6,0,1.3-0.5,1.7l-11.1,8.2C61.9,67.6,61.6,67.7,61.3,67.7z M52,57.5l9.3,6.8l9.3-6.8L69,53.2
		H53.5L52,57.5z"/>
	<g>
		<path d="M76.4,37.1c-0.2-0.2-0.6-0.4-0.9-0.4c-0.4,0-0.7,0.1-0.9,0.4L68.7,43c-0.2,0.2-0.4,0.6-0.4,0.9c0,0.4,0.1,0.7,0.4,0.9
			c0.5,0.5,1.4,0.5,1.9,0l5.9-5.9C76.9,38.5,76.9,37.6,76.4,37.1z"/>
		<path d="M62.8,33.3c0-0.7-0.8-1.3-1.5-1.3c-0.7,0-1.5,0.6-1.5,1.3v8.3c0,0.7,0.8,1.3,1.5,1.3c0.7,0,1.5-0.6,1.5-1.3V33.3z"/>
		<path d="M53.9,43L48,37.1c-0.2-0.2-0.6-0.4-0.9-0.4c-0.4,0-0.7,0.1-0.9,0.4c-0.5,0.5-0.5,1.3,0,1.9l5.9,5.9c0.5,0.5,1.4,0.5,1.9,0
			c0.2-0.2,0.4-0.6,0.4-0.9C54.3,43.6,54.1,43.2,53.9,43z"/>
	</g>
	<polygon points="61.3,65.8 53.6,52.5 56.2,51 61.3,59.8 65.8,51.8 68.4,53.3 	"/>
</g>
</svg>
